<svg width="512" height="512" viewBox="0 0 512 512" xmlns="http://www.w3.org/2000/svg">
  <circle cx="256" cy="256" r="250" fill="black" />

  <g id="wreath" fill="#555555" opacity="0.8">
    <path d="M100,350 Q80,300 100,250 T130,180 T180,130" stroke="#555555" stroke-width="5" fill="none"/>
    <g transform="translate(0,0)">
       <path d="M120,380 Q100,360 120,340 Q140,360 120,380 Z" fill="#666"/>
       <path d="M100,340 Q80,320 100,300 Q120,320 100,340 Z" fill="#666"/>
       <path d="M90,290 Q70,270 90,250 Q110,270 90,290 Z" fill="#666"/>
       <path d="M95,240 Q75,220 95,200 Q115,220 95,240 Z" fill="#666"/>
       <path d="M110,190 Q90,170 110,150 Q130,170 110,190 Z" fill="#666"/>
       <path d="M140,150 Q120,130 140,110 Q160,130 140,150 Z" fill="#666"/>
    </g>
    <g transform="scale(-1, 1) translate(-512, 0)">
       <path d="M120,380 Q100,360 120,340 Q140,360 120,380 Z" fill="#666"/>
       <path d="M100,340 Q80,320 100,300 Q120,320 100,340 Z" fill="#666"/>
       <path d="M90,290 Q70,270 90,250 Q110,270 90,290 Z" fill="#666"/>
       <path d="M95,240 Q75,220 95,200 Q115,220 95,240 Z" fill="#666"/>
       <path d="M110,190 Q90,170 110,150 Q130,170 110,190 Z" fill="#666"/>
       <path d="M140,150 Q120,130 140,110 Q160,130 140,150 Z" fill="#666"/>
    </g>
  </g>

  <defs>
    <path id="textArc" d="M 60,256 A 196,196 0 0 1 452,256" />
  </defs>
  
  <text fill="white" font-family="serif" font-size="52" font-weight="bold" letter-spacing="2">
    <textPath xlink:href="#textArc" startOffset="50%" text-anchor="middle" xmlns:xlink="http://www.w3.org/1999/xlink">
      University Of Lucknow
    </textPath>
  </text>

  <g transform="translate(256, 280)">
    <rect x="-60" y="50" width="120" height="10" fill="#F4C430" />
    <path d="M-30,50 L30,50 L10,10 L-10,10 Z" fill="#F4C430" />
    
    <g transform="rotate(-20)">
        <rect x="-10" y="-80" width="20" height="100" fill="#F4C430" rx="5" />
        <circle cx="0" cy="10" r="15" fill="#F4C430" stroke="black" stroke-width="2"/>
        <circle cx="0" cy="10" r="8" fill="none" stroke="black" stroke-width="2"/>
        
        <g transform="translate(0, -80) rotate(60)">
            <rect x="-8" y="-70" width="16" height="80" fill="#F4C430" rx="4" />
            <circle cx="0" cy="0" r="12" fill="#F4C430" stroke="black" stroke-width="2"/>
            
            <g transform="translate(0, -70) rotate(-40)">
                 <path d="M-10,-10 L-5,-20 L5,-20 L10,-10" fill="none" stroke="#F4C430" stroke-width="4" />
                 <path d="M-12,-20 L-8,-30" stroke="#F4C430" stroke-width="4" stroke-linecap="round"/>
                 <path d="M12,-20 L8,-30" stroke="#F4C430" stroke-width="4" stroke-linecap="round"/>
            </g>
        </g>
    </g>
  </g>

  <path d="M300,320 v-40 a30,30 0 0 1 30,-30 h10 a20,20 0 0 1 20,20 v30 h-10 v20 h-50" fill="none" stroke="#E67E22" stroke-width="3" />
  <circle cx="335" cy="280" r="12" fill="none" stroke="#E67E22" stroke-width="3" />
  <path d="M335,264 v6 m0,20 v6 m16,-16 h-6 m-20,0 h-6" stroke="#E67E22" stroke-width="3" />

  <text x="160" y="260" fill="white" font-family="sans-serif" font-size="30" font-weight="bold">€</text>
  <circle cx="230" cy="190" r="18" stroke="white" stroke-width="2" fill="none"/>
  <text x="223" y="200" fill="white" font-family="sans-serif" font-size="24" font-weight="bold">f</text>
  <circle cx="190" cy="220" r="20" stroke="white" stroke-width="2" fill="none"/>
  <path d="M190,210 v20 m-6,-16 l12,12" stroke="white" stroke-width="2" />

  <text x="256" y="430" fill="white" font-family="Impact, sans-serif" font-size="28" text-anchor="middle" letter-spacing="1">
    Robotics Club
  </text>
  
  <path d="M220,450 L292,450 L256,455 Z" fill="white" />
</svg>